<svg xmlns="http://www.w3.org/2000/svg" width="1443.318" height="863.625" viewBox="0 0 1443.318 863.625"><defs><style>.a{opacity:0.35;}.b{fill:#764eff;}.b,.c{opacity:0.71;}.c{fill:#22a8a4;}.d{fill:#a9a9a9;opacity:0.6;}.e{fill:#fff;}</style></defs><g class="a"><path class="b" d="M38.954,31.021a19,19,0,0,1,33.449,0L96.252,75.257a19,19,0,0,1-16.724,28.017h-47.7A19,19,0,0,1,15.1,75.257Z" transform="matrix(-0.809, -0.588, 0.588, -0.809, 668.407, 827.004)"/><path class="b" d="M38.954,31.021a19,19,0,0,1,33.449,0L96.252,75.257a19,19,0,0,1-16.724,28.017h-47.7A19,19,0,0,1,15.1,75.257Z" transform="matrix(-0.809, -0.588, 0.588, -0.809, 118.089, 663.638)"/><path class="b" d="M38.954,31.021a19,19,0,0,1,33.449,0L96.252,75.257a19,19,0,0,1-16.724,28.017h-47.7A19,19,0,0,1,15.1,75.257Z" transform="matrix(-0.809, -0.588, 0.588, -0.809, 90.089, 212.621)"/><path class="b" d="M38.954,31.021a19,19,0,0,1,33.449,0L96.252,75.257a19,19,0,0,1-16.724,28.017h-47.7A19,19,0,0,1,15.1,75.257Z" transform="matrix(-0.809, -0.588, 0.588, -0.809, 1299.089, 648.446)"/><path class="b" d="M38.954,31.021a19,19,0,0,1,33.449,0L96.252,75.257a19,19,0,0,1-16.724,28.017h-47.7A19,19,0,0,1,15.1,75.257Z" transform="matrix(-0.809, -0.588, 0.588, -0.809, 842.723, 335.108)"/><path class="c" d="M38.954,31.021a19,19,0,0,1,33.449,0L96.252,75.257a19,19,0,0,1-16.724,28.017h-47.7A19,19,0,0,1,15.1,75.257Z" transform="matrix(-0.809, -0.588, 0.588, -0.809, 1290.089, 282.885)"/><path class="c" d="M38.954,31.021a19,19,0,0,1,33.449,0L96.252,75.257a19,19,0,0,1-16.724,28.017h-47.7A19,19,0,0,1,15.1,75.257Z" transform="matrix(-0.809, -0.588, 0.588, -0.809, 983.201, 149.004)"/><path class="c" d="M38.954,31.021a19,19,0,0,1,33.449,0L96.252,75.257a19,19,0,0,1-16.724,28.017h-47.7A19,19,0,0,1,15.1,75.257Z" transform="matrix(-0.809, -0.588, 0.588, -0.809, 311.089, 404.422)"/><path class="c" d="M38.954,31.021a19,19,0,0,1,33.449,0L96.252,75.257a19,19,0,0,1-16.724,28.017h-47.7A19,19,0,0,1,15.1,75.257Z" transform="matrix(-0.809, -0.588, 0.588, -0.809, 919.627, 850.004)"/><path class="d" d="M26.152,9.983a19,19,0,0,1,33.449,0L83.449,54.22A19,19,0,0,1,66.725,82.237h-47.7A19,19,0,0,1,2.3,54.22Z" transform="matrix(-0.788, -0.616, 0.616, -0.788, 540.392, 233.856)"/><path class="d" d="M26.152,9.983a19,19,0,0,1,33.449,0L83.449,54.22A19,19,0,0,1,66.725,82.237h-47.7A19,19,0,0,1,2.3,54.22Z" transform="matrix(-0.788, -0.616, 0.616, -0.788, 838.593, 577.434)"/><path class="d" d="M26.152,9.983a19,19,0,0,1,33.449,0L83.449,54.22A19,19,0,0,1,66.725,82.237h-47.7A19,19,0,0,1,2.3,54.22Z" transform="matrix(-0.788, -0.616, 0.616, -0.788, 604.951, 399.497)"/><path class="d" d="M26.152,9.983a19,19,0,0,1,33.449,0L83.449,54.22A19,19,0,0,1,66.725,82.237h-47.7A19,19,0,0,1,2.3,54.22Z" transform="matrix(-0.788, -0.616, 0.616, -0.788, 450.215, 540.324)"/><path class="d" d="M26.152,9.983a19,19,0,0,1,33.449,0L83.449,54.22A19,19,0,0,1,66.725,82.237h-47.7A19,19,0,0,1,2.3,54.22Z" transform="matrix(-0.788, -0.616, 0.616, -0.788, 324.171, 795.856)"/><path class="e" d="M32.379,20.974a14,14,0,0,1,24.243,0L76.861,55.995A14,14,0,0,1,64.739,77H24.261A14,14,0,0,1,12.139,55.995Z" transform="matrix(-0.035, -0.999, 0.999, -0.035, 480.573, 672.054)"/><path class="e" d="M32.379,20.974a14,14,0,0,1,24.243,0L76.861,55.995A14,14,0,0,1,64.739,77H24.261A14,14,0,0,1,12.139,55.995Z" transform="matrix(-0.035, -0.999, 0.999, -0.035, 1002.832, 446.173)"/><path class="e" d="M32.379,20.974a14,14,0,0,1,24.243,0L76.861,55.995A14,14,0,0,1,64.739,77H24.261A14,14,0,0,1,12.139,55.995Z" transform="matrix(-0.035, -0.999, 0.999, -0.035, 1150.293, 863.625)"/><path class="e" d="M32.379,20.974a14,14,0,0,1,24.243,0L76.861,55.995A14,14,0,0,1,64.739,77H24.261A14,14,0,0,1,12.139,55.995Z" transform="matrix(-0.035, -0.999, 0.999, -0.035, 1366.365, 435.689)"/><path class="e" d="M32.379,20.974a14,14,0,0,1,24.243,0L76.861,55.995A14,14,0,0,1,64.739,77H24.261A14,14,0,0,1,12.139,55.995Z" transform="matrix(-0.035, -0.999, 0.999, -0.035, 51.365, 830.625)"/><path class="e" d="M32.379,20.974a14,14,0,0,1,24.243,0L76.861,55.995A14,14,0,0,1,64.739,77H24.261A14,14,0,0,1,12.139,55.995Z" transform="matrix(-0.035, -0.999, 0.999, -0.035, 58.365, 429.018)"/></g></svg>